<?xml version="1.0" encoding="UTF-8"?>
<svg id="livetype" xmlns="http://www.w3.org/2000/svg" xmlns:xlink="http://www.w3.org/1999/xlink" version="1.1" viewBox="0 0 119.7 40">
  <defs>
    <style>
      .cls-1 {
        fill: #a6a6a6;
      }

      .cls-1, .cls-2, .cls-3, .cls-4, .cls-5, .cls-6, .cls-7, .cls-8, .cls-9, .cls-10 {
        stroke-width: 0px;
      }

      .cls-2 {
        opacity: .2;
      }

      .cls-2, .cls-4, .cls-10 {
        isolation: isolate;
      }

      .cls-2, .cls-9 {
        fill: #fff;
      }

      .cls-3 {
        fill: url(#linear-gradient);
      }

      .cls-4 {
        opacity: .1;
      }

      .cls-4, .cls-5, .cls-10 {
        fill: #000;
      }

      .cls-6 {
        fill: url(#linear-gradient-4);
      }

      .cls-7 {
        fill: url(#linear-gradient-2);
      }

      .cls-8 {
        fill: url(#linear-gradient-3);
      }

      .cls-11 {
        display: none;
      }

      .cls-10 {
        opacity: .2;
      }
    </style>
    <linearGradient id="linear-gradient" x1="-394.8" y1="1059.7" x2="-397.3" y2="1062.2" gradientTransform="translate(2359.5 -6269.5) scale(5.9)" gradientUnits="userSpaceOnUse">
      <stop offset="0" stop-color="#00a0ff"/>
      <stop offset="0" stop-color="#00a1ff"/>
      <stop offset=".3" stop-color="#00beff"/>
      <stop offset=".5" stop-color="#00d2ff"/>
      <stop offset=".8" stop-color="#00dfff"/>
      <stop offset="1" stop-color="#00e3ff"/>
    </linearGradient>
    <linearGradient id="linear-gradient-2" x1="-393.1" y1="1061.4" x2="-396.6" y2="1061.4" gradientTransform="translate(2359.5 -6269.5) scale(5.9)" gradientUnits="userSpaceOnUse">
      <stop offset="0" stop-color="#ffe000"/>
      <stop offset=".4" stop-color="#ffbd00"/>
      <stop offset=".8" stop-color="orange"/>
      <stop offset="1" stop-color="#ff9c00"/>
    </linearGradient>
    <linearGradient id="linear-gradient-3" x1="-394.4" y1="1061.7" x2="-397.8" y2="1065.1" gradientTransform="translate(2359.5 -6269.5) scale(5.9)" gradientUnits="userSpaceOnUse">
      <stop offset="0" stop-color="#ff3a44"/>
      <stop offset="1" stop-color="#c31162"/>
    </linearGradient>
    <linearGradient id="linear-gradient-4" x1="-397" y1="1058.4" x2="-395.5" y2="1059.9" gradientTransform="translate(2359.5 -6269.5) scale(5.9)" gradientUnits="userSpaceOnUse">
      <stop offset="0" stop-color="#32a071"/>
      <stop offset="0" stop-color="#2da771"/>
      <stop offset=".5" stop-color="#15cf74"/>
      <stop offset=".8" stop-color="#06e775"/>
      <stop offset="1" stop-color="#00f076"/>
    </linearGradient>
  </defs>
  <g>
    <g>
      <g>
        <path class="cls-1" d="M110.1,0H9.5c-.4,0-.7,0-1.1,0-.3,0-.6,0-.9,0-.7,0-1.3,0-2,.2-.7.1-1.3.3-1.9.6-.6.3-1.1.7-1.6,1.2-.5.5-.9,1-1.2,1.6-.3.6-.5,1.2-.6,1.9C0,6.2,0,6.9,0,7.5c0,.3,0,.6,0,.9v23.1c0,.3,0,.6,0,.9,0,.7,0,1.3.2,2,.1.7.3,1.3.6,1.9.3.6.7,1.1,1.2,1.6.5.5,1,.9,1.6,1.2.6.3,1.2.5,1.9.6.7.1,1.3.2,2,.2.3,0,.6,0,.9,0,.4,0,.7,0,1.1,0h100.6c.4,0,.7,0,1.1,0,.3,0,.6,0,.9,0,.7,0,1.3,0,2-.2.7-.1,1.3-.3,1.9-.6.6-.3,1.1-.7,1.6-1.2.5-.5.9-1,1.2-1.6.3-.6.5-1.2.6-1.9.1-.7.2-1.3.2-2,0-.3,0-.6,0-.9,0-.4,0-.7,0-1.1V9.5c0-.4,0-.7,0-1.1,0-.3,0-.6,0-.9,0-.7,0-1.3-.2-2-.1-.7-.3-1.3-.6-1.9-.6-1.2-1.6-2.2-2.8-2.8-.6-.3-1.2-.5-1.9-.6-.7-.1-1.3-.2-2-.2-.3,0-.6,0-.9,0-.4,0-.7,0-1.1,0h0Z"/>
        <path class="cls-5" d="M8.4,39.1c-.3,0-.6,0-.9,0-.6,0-1.3,0-1.9-.2-.6,0-1.1-.3-1.7-.5-.5-.3-1-.6-1.4-1-.4-.4-.8-.9-1-1.4-.3-.5-.4-1.1-.5-1.7-.1-.6-.2-1.2-.2-1.9,0-.2,0-.9,0-.9V8.4s0-.7,0-.9c0-.6,0-1.3.2-1.9,0-.6.3-1.1.5-1.7.3-.5.6-1,1-1.4.4-.4.9-.8,1.4-1,.5-.3,1.1-.4,1.7-.5.6-.1,1.2-.2,1.9-.2h.9s102.8,0,102.8,0h.9c.6,0,1.2,0,1.9.2.6,0,1.1.3,1.7.5,1,.5,1.9,1.4,2.4,2.4.3.5.4,1.1.5,1.6.1.6.2,1.3.2,1.9,0,.3,0,.6,0,.9,0,.4,0,.7,0,1.1v20.9c0,.4,0,.7,0,1.1,0,.3,0,.6,0,.9,0,.6,0,1.2-.2,1.9,0,.6-.3,1.1-.5,1.7-.3.5-.6,1-1,1.4-.4.4-.9.8-1.4,1-.5.3-1.1.5-1.7.5-.6.1-1.2.2-1.9.2-.3,0-.6,0-.9,0h-1.1s-101.7,0-101.7,0Z"/>
      </g>
      <g id="_Group_" data-name=" Group " class="cls-11">
        <g id="_Group_2" data-name=" Group 2">
          <g id="_Group_3" data-name=" Group 3">
            <path id="_Path_" data-name=" Path " class="cls-9" d="M24.8,20.3c0-1.7.9-3.3,2.4-4.2-.9-1.3-2.4-2.1-4-2.2-1.7-.2-3.3,1-4.2,1s-2.2-1-3.6-1c-1.9,0-3.6,1.1-4.5,2.7-1.9,3.3-.5,8.3,1.4,11,.9,1.3,2,2.8,3.4,2.8,1.4,0,1.9-.9,3.6-.9s2.1.9,3.6.9c1.5,0,2.4-1.3,3.3-2.7.7-.9,1.2-2,1.5-3.1-1.8-.7-2.9-2.5-2.9-4.4Z"/>
            <path id="_Path_2" data-name=" Path 2" class="cls-9" d="M22,12.2c.8-1,1.2-2.2,1.1-3.5-1.2.1-2.4.7-3.2,1.7-.8.9-1.2,2.1-1.1,3.4,1.3,0,2.4-.6,3.2-1.5Z"/>
          </g>
        </g>
        <g>
          <path class="cls-9" d="M42.3,27.1h-4.7l-1.1,3.4h-2l4.5-12.4h2.1l4.5,12.4h-2l-1.1-3.4ZM38.1,25.6h3.8l-1.8-5.4h0l-1.9,5.4Z"/>
          <path class="cls-9" d="M55.2,26c0,2.8-1.5,4.6-3.8,4.6-1.2,0-2.3-.6-2.8-1.6h0v4.5h-1.9v-12h1.8v1.5h0c.6-1,1.7-1.6,2.9-1.6,2.3,0,3.8,1.8,3.8,4.6ZM53.2,26c0-1.8-.9-3-2.4-3s-2.4,1.2-2.4,3,1,3,2.4,3,2.4-1.2,2.4-3Z"/>
          <path class="cls-9" d="M65.1,26c0,2.8-1.5,4.6-3.8,4.6-1.2,0-2.3-.6-2.8-1.6h0v4.5h-1.9v-12h1.8v1.5h0c.6-1,1.7-1.6,2.9-1.6,2.3,0,3.8,1.8,3.8,4.6ZM63.2,26c0-1.8-.9-3-2.4-3s-2.4,1.2-2.4,3,1,3,2.4,3,2.4-1.2,2.4-3h0Z"/>
          <path class="cls-9" d="M71.7,27c.1,1.2,1.3,2,3,2s2.7-.8,2.7-1.9-.7-1.5-2.3-1.9l-1.6-.4c-2.3-.6-3.3-1.6-3.3-3.3s1.9-3.6,4.5-3.6,4.4,1.5,4.5,3.6h-1.9c-.1-1.2-1.1-2-2.6-2s-2.5.8-2.5,1.9.7,1.4,2.3,1.8l1.4.3c2.5.6,3.6,1.6,3.6,3.4s-1.9,3.8-4.8,3.8-4.6-1.4-4.7-3.7h1.9Z"/>
          <path class="cls-9" d="M83.3,19.3v2.1h1.7v1.5h-1.7v5c0,.8.3,1.1,1.1,1.1.2,0,.4,0,.6,0v1.5c-.3,0-.7,0-1,0-1.8,0-2.5-.7-2.5-2.4v-5.2h-1.3v-1.5h1.3v-2.1h1.9Z"/>
          <path class="cls-9" d="M86.1,26c0-2.8,1.7-4.6,4.3-4.6s4.3,1.8,4.3,4.6-1.7,4.6-4.3,4.6-4.3-1.8-4.3-4.6ZM92.8,26c0-2-.9-3.1-2.4-3.1s-2.4,1.2-2.4,3.1.9,3.1,2.4,3.1,2.4-1.1,2.4-3.1h0Z"/>
          <path class="cls-9" d="M96.2,21.4h1.8v1.5h0c.2-1,1.2-1.7,2.2-1.6.2,0,.4,0,.6,0v1.7c-.3,0-.6-.1-.8-.1-1,0-1.9.8-1.9,1.8,0,0,0,.2,0,.3v5.4h-1.9v-9.1Z"/>
          <path class="cls-9" d="M109.4,27.8c-.2,1.6-1.9,2.8-3.9,2.8s-4.3-1.8-4.3-4.6,1.6-4.7,4.2-4.7,4.1,1.7,4.1,4.5v.6h-6.4c-.1,1.4.8,2.6,2.1,2.7,0,0,.2,0,.3,0,.9,0,1.8-.4,2.1-1.3h1.8ZM103.1,25.1h4.5c0-1.2-.9-2.2-2.1-2.3,0,0-.1,0-.2,0-1.3,0-2.3,1-2.3,2.3,0,0,0,0,0,0Z"/>
        </g>
      </g>
    </g>
    <g id="_Group_4" data-name=" Group 4">
      <g>
        <path class="cls-9" d="M37.8,8.7c1.5-.1,2.7,1,2.8,2.4,0,.2,0,.3,0,.5,0,1.9-1,3-2.8,3h-2.2v-6h2.2ZM36.6,13.9h1.1c1,0,1.9-.7,2-1.8,0-.1,0-.3,0-.4.1-1-.6-2-1.6-2.1-.1,0-.2,0-.4,0h-1.1v4.3Z"/>
        <path class="cls-9" d="M41.7,12.4c-.1-1.2.7-2.2,1.9-2.3,1.2-.1,2.2.7,2.3,1.9,0,.1,0,.3,0,.4.1,1.2-.7,2.2-1.9,2.3-1.2.1-2.2-.7-2.3-1.9,0-.1,0-.3,0-.4ZM45,12.4c0-1-.4-1.5-1.2-1.5s-1.2.6-1.2,1.5.4,1.6,1.2,1.6c.8,0,1.2-.6,1.2-1.6h0Z"/>
        <path class="cls-9" d="M51.6,14.7h-.9l-.9-3.3h0l-.9,3.3h-.9l-1.2-4.5h.9l.8,3.4h0l.9-3.4h.9l.9,3.4h0l.8-3.4h.9l-1.2,4.5Z"/>
        <path class="cls-9" d="M53.9,10.2h.9v.7h0c.2-.5.8-.8,1.3-.8.8,0,1.5.5,1.6,1.4,0,.1,0,.2,0,.3v2.9h-.9v-2.7c0-.7-.3-1.1-1-1.1-.6,0-1.1.4-1.1,1,0,0,0,.1,0,.2v2.6h-.9v-4.5Z"/>
        <path class="cls-9" d="M59.1,8.4h.9v6.3h-.9v-6.3Z"/>
        <path class="cls-9" d="M61.2,12.4c-.1-1.2.7-2.2,1.9-2.3,1.2-.1,2.2.7,2.3,1.9,0,.1,0,.3,0,.4.1,1.2-.7,2.2-1.9,2.3s-2.2-.7-2.3-1.9c0-.1,0-.3,0-.4ZM64.6,12.4c0-1-.4-1.5-1.2-1.5s-1.2.6-1.2,1.5.4,1.6,1.2,1.6c.8,0,1.2-.6,1.2-1.6Z"/>
        <path class="cls-9" d="M66.4,13.4c0-.8.6-1.3,1.7-1.3h1.2v-.5c0-.5-.3-.7-.9-.7s-.8.2-.9.5h-.9c0-.8.8-1.3,1.8-1.3s1.8.6,1.8,1.5v3.1h-.9v-.6h0c-.3.5-.8.7-1.4.7-.7,0-1.4-.5-1.5-1.2,0,0,0,0,0-.1ZM69.3,13v-.4h-1.1c-.6.1-.9.3-.9.7s.4.6.8.6c.6,0,1.1-.4,1.2-.9,0,0,0,0,0,0Z"/>
        <path class="cls-9" d="M71.3,12.4c0-1.4.7-2.3,1.9-2.3.6,0,1.1.3,1.4.8h0v-2.5h.9v6.3h-.9v-.7h0c-.3.5-.8.8-1.4.8-1.1,0-1.9-.9-1.9-2.3ZM72.3,12.4c0,1,.5,1.5,1.2,1.5s1.2-.6,1.2-1.5-.5-1.5-1.2-1.5-1.2.6-1.2,1.5h0Z"/>
        <path class="cls-9" d="M79.2,12.4c-.1-1.2.7-2.2,1.9-2.3s2.2.7,2.3,1.9c0,.1,0,.3,0,.4.1,1.2-.7,2.2-1.9,2.3-1.2.1-2.2-.7-2.3-1.9,0-.1,0-.3,0-.4ZM82.6,12.4c0-1-.4-1.5-1.2-1.5s-1.2.6-1.2,1.5.4,1.6,1.2,1.6c.8,0,1.2-.6,1.2-1.6Z"/>
        <path class="cls-9" d="M84.7,10.2h.9v.7h0c.2-.5.8-.8,1.3-.8.8,0,1.5.5,1.6,1.4,0,.1,0,.2,0,.3v2.9h-.9v-2.7c0-.7-.3-1.1-1-1.1-.6,0-1.1.4-1.1,1,0,0,0,.1,0,.2v2.6h-.9v-4.5Z"/>
        <path class="cls-9" d="M93.5,9.1v1.1h1v.7h-1v2.3c0,.5.2.7.6.7.1,0,.2,0,.3,0v.7c-.2,0-.3,0-.5,0-1,0-1.4-.3-1.4-1.2v-2.5h-.7v-.7h.7v-1.1h.9Z"/>
        <path class="cls-9" d="M95.7,8.4h.9v2.5h0c.2-.5.8-.9,1.4-.8.8,0,1.5.6,1.6,1.4,0,0,0,.2,0,.3v2.9h-.9v-2.7c0-.7-.3-1.1-1-1.1-.6,0-1.1.4-1.1,1,0,0,0,.1,0,.2v2.6h-.9v-6.3Z"/>
        <path class="cls-9" d="M104.8,13.5c-.2.8-1.1,1.4-2,1.3-1.1,0-2.1-.9-2.1-2,0-.1,0-.2,0-.3-.2-1.1.6-2.2,1.8-2.3,0,0,.2,0,.3,0,1.3,0,2,.9,2,2.3v.3h-3.2c0,.7.4,1.3,1.1,1.3,0,0,0,0,.1,0,.4,0,.9-.2,1.1-.5h.9ZM101.6,12h2.3c0-.6-.4-1.1-1-1.2,0,0,0,0-.1,0-.6,0-1.2.5-1.2,1.1,0,0,0,0,0,0h0Z"/>
      </g>
    </g>
  </g>
  <path class="cls-9" d="M39.6,18.1h-3.9v11h1.7v-4.1h2.3c1.8,0,3.6-1.3,3.6-3.4s-1.8-3.4-3.6-3.4ZM39.7,23.3h-2.4v-3.8h2.4c1.2,0,1.9,1.1,1.9,1.8,0,1-.8,1.9-1.9,1.9h0ZM49.7,21.7c-1.2,0-2.5.5-2.9,1.7l1.5.6c.4-.6.9-.8,1.5-.8.9,0,1.7.5,1.8,1.4h0c-.3,0-1-.4-1.7-.4-1.6,0-3.2.9-3.2,2.5s1.3,2.5,2.7,2.5,1.7-.5,2.1-1.1h0v.9h1.6v-4.2c-.2-1.9-1.7-3.1-3.5-3.1h0ZM49.6,27.8c-.5,0-1.3-.3-1.3-1s1-1.1,1.8-1.1,1.1.2,1.5.4c-.2,1.1-1.1,1.8-1.9,1.8ZM58.8,22l-1.8,4.7h0l-1.9-4.7h-1.8l2.9,6.7-1.7,3.7h1.7l4.5-10.3h-1.8ZM44,29h1.7v-11h-1.7v11Z"/>
  <g>
    <path class="cls-3" d="M9.8,9c-.3.3-.4.7-.4,1.2v19.4c0,.5.2,1,.4,1.2h0c0,0,10.9-10.8,10.9-10.8v-.2l-11-10.9Z"/>
    <path class="cls-7" d="M24.3,23.8l-3.6-3.6v-.3l3.6-3.6h0c0,0,4.3,2.5,4.3,2.5,1.2.7,1.2,1.8,0,2.5l-4.4,2.4Z"/>
    <path class="cls-8" d="M24.4,23.7l-3.7-3.7-11,11c.4.4,1.1.4,1.8,0l12.8-7.4"/>
    <path class="cls-6" d="M24.4,16.3l-12.8-7.3c-.8-.4-1.4-.4-1.8,0l11,10.9,3.7-3.7h0Z"/>
    <path class="cls-10" d="M24.3,23.6l-12.7,7.2c-.7.4-1.3.4-1.8,0h0c0,0,0,.2,0,.2.4.4,1.1.4,1.8,0l12.7-7.4Z"/>
    <path class="cls-4" d="M9.8,30.8c-.3-.3-.4-.7-.4-1.2h0c0,.6.2,1.1.4,1.3h0c0,0,0,0,0,0h0ZM28.7,21.1l-4.4,2.5h0c0,0,4.3-2.4,4.3-2.4.6-.4.9-.8.9-1.2,0,.4-.4.8-.9,1.1Z"/>
    <path class="cls-2" d="M11.6,9.1l17.1,9.7c.5.4.9.7.9,1.1,0-.4-.3-.9-.9-1.2L11.6,9c-1.2-.7-2.2-.2-2.2,1.2h0c0-1.2,1-1.8,2.2-1.1Z"/>
  </g>
  <g>
    <path class="cls-9" d="M66.5,27.9c.1,1.2,1.3,2,3,2s2.7-.8,2.7-1.9-.7-1.5-2.3-1.9l-1.6-.4c-2.3-.6-3.3-1.6-3.3-3.3s1.9-3.6,4.5-3.6,4.4,1.5,4.5,3.6h-1.9c-.1-1.2-1.1-2-2.6-2s-2.5.8-2.5,1.9.7,1.4,2.3,1.8l1.4.3c2.5.6,3.6,1.6,3.6,3.4s-1.9,3.8-4.8,3.8-4.6-1.4-4.7-3.7h1.9Z"/>
    <path class="cls-9" d="M78.2,20.2v2.1h1.7v1.5h-1.7v5c0,.8.3,1.1,1.1,1.1.2,0,.4,0,.6,0v1.5c-.3,0-.7,0-1,0-1.8,0-2.5-.7-2.5-2.4v-5.2h-1.3v-1.5h1.3v-2.1h1.9Z"/>
    <path class="cls-9" d="M80.9,26.9c0-2.8,1.7-4.6,4.3-4.6s4.3,1.8,4.3,4.6-1.7,4.6-4.3,4.6-4.3-1.8-4.3-4.6ZM87.6,26.9c0-2-.9-3.1-2.4-3.1s-2.4,1.2-2.4,3.1.9,3.1,2.4,3.1,2.4-1.1,2.4-3.1h0Z"/>
    <path class="cls-9" d="M91,22.4h1.8v1.5h0c.2-1,1.2-1.7,2.2-1.6.2,0,.4,0,.6,0v1.7c-.3,0-.6-.1-.8-.1-1,0-1.9.8-1.9,1.8,0,0,0,.2,0,.3v5.4h-1.9v-9.1Z"/>
    <path class="cls-9" d="M104.2,28.7c-.2,1.6-1.9,2.8-3.9,2.8s-4.3-1.8-4.3-4.6,1.6-4.7,4.2-4.7,4.1,1.7,4.1,4.5v.6h-6.4c-.1,1.4.8,2.6,2.1,2.7,0,0,.2,0,.3,0,.9,0,1.8-.4,2.1-1.3h1.8ZM97.9,26h4.5c0-1.2-.9-2.2-2.1-2.3,0,0-.1,0-.2,0-1.3,0-2.3,1-2.3,2.3,0,0,0,0,0,0Z"/>
  </g>
</svg>