<?xml version="1.0" encoding="UTF-8"?>
<svg id="Layer_1" data-name="Layer 1" xmlns="http://www.w3.org/2000/svg" xmlns:xlink="http://www.w3.org/1999/xlink" viewBox="0 0 569.07 146.07">
  <defs>
    <style>
      .cls-1 {
        fill: url(#linear-gradient);
      }

      .cls-1, .cls-2, .cls-3, .cls-4 {
        stroke-width: 0px;
      }

      .cls-2 {
        fill: #303030;
      }

      .cls-3 {
        fill: url(#linear-gradient-2);
      }

      .cls-4 {
        fill: url(#linear-gradient-3);
      }
    </style>
    <linearGradient id="linear-gradient" x1="0" y1="73.03" x2="145.34" y2="73.03" gradientUnits="userSpaceOnUse">
      <stop offset=".04" stop-color="#6a2c90"/>
      <stop offset=".04" stop-color="#6a2c90"/>
      <stop offset=".45" stop-color="#8d3b95"/>
      <stop offset=".79" stop-color="#a34499"/>
      <stop offset="1" stop-color="#ac489b"/>
    </linearGradient>
    <linearGradient id="linear-gradient-2" x1="22.53" x2="124.55" xlink:href="#linear-gradient"/>
    <linearGradient id="linear-gradient-3" x1="42.99" y1="73.03" x2="101.25" y2="73.03" xlink:href="#linear-gradient"/>
  </defs>
  <path class="cls-1" d="M73.03,146.07c-17.64,0-34.66-6.37-47.95-17.94C11.93,116.67,3.3,100.9.78,83.73c-.52-3.52-.78-7.12-.78-10.69s.26-7.17.78-10.69C3.3,45.17,11.93,29.4,25.08,17.94,38.36,6.37,55.39,0,73.03,0s34.67,6.37,47.95,17.94c13.15,11.46,21.78,27.22,24.31,44.39.45,3.07-1.67,5.93-4.75,6.38-3.07.45-5.93-1.67-6.38-4.75-2.13-14.52-9.44-27.85-20.57-37.55-11.24-9.79-25.64-15.18-40.56-15.18s-29.32,5.39-40.56,15.18c-11.13,9.69-18.43,23.03-20.56,37.55-.44,2.98-.66,6.03-.66,9.06s.22,6.08.66,9.06c2.13,14.52,9.44,27.85,20.56,37.55,11.23,9.79,25.64,15.18,40.56,15.18s29.33-5.39,40.56-15.18c11.13-9.69,18.43-23.03,20.57-37.55.45-3.07,3.31-5.2,6.38-4.75,3.07.45,5.2,3.31,4.75,6.38-2.52,17.17-11.15,32.94-24.31,44.4-13.28,11.57-30.31,17.94-47.95,17.94Z"/>
  <path class="cls-3" d="M73.05,124.54c-24.22,0-45.41-17.18-50.39-40.84-.64-3.04,1.31-6.02,4.34-6.66,3.04-.64,6.02,1.31,6.66,4.34,3.89,18.49,20.46,31.91,39.39,31.91s35.49-13.42,39.39-31.91c.58-2.72.87-5.52.87-8.35s-.29-5.64-.87-8.33c-3.9-18.51-20.46-31.93-39.39-31.93s-35.5,13.42-39.39,31.91c-.64,3.04-3.62,4.98-6.66,4.34-3.04-.64-4.98-3.62-4.34-6.66,4.98-23.66,26.17-40.84,50.39-40.84s45.41,17.17,50.39,40.84c.74,3.45,1.12,7.05,1.12,10.67s-.38,7.22-1.12,10.69c-4.98,23.64-26.17,40.82-50.39,40.82Z"/>
  <path class="cls-4" d="M72.92,102.96c-12.33,0-23.56-7.73-27.96-19.24-1.31-3.39-1.97-6.99-1.97-10.69s.66-7.3,1.98-10.7c4.39-11.49,15.63-19.23,27.95-19.23s23.56,7.73,27.96,19.24c1.11,2.9-.35,6.15-3.25,7.26-2.9,1.11-6.15-.35-7.26-3.25-2.74-7.18-9.76-12.01-17.45-12.01s-14.71,4.83-17.45,12.01c-.82,2.12-1.23,4.36-1.23,6.67s.41,4.55,1.22,6.66c2.75,7.2,9.76,12.02,17.46,12.02s14.71-4.83,17.45-12.01c1.11-2.9,4.36-4.36,7.26-3.25,2.9,1.11,4.36,4.36,3.25,7.26-4.4,11.51-15.63,19.24-27.96,19.24Z"/>
  <g>
    <path class="cls-2" d="M209.56,112.75c-5.35,0-10.36-1.01-15.02-3.02-4.66-2.02-8.73-4.82-12.2-8.43-3.47-3.6-6.18-7.82-8.13-12.64-1.95-4.83-2.93-10.05-2.93-15.67s.97-10.73,2.93-15.52c1.95-4.79,4.66-8.99,8.13-12.59,3.47-3.6,7.52-6.43,12.15-8.48,4.63-2.05,9.65-3.07,15.07-3.07,5.09,0,9.47.66,13.14,1.98,3.67,1.32,7.35,3.5,11.06,6.54.53.4.94.81,1.24,1.24.3.43.5.86.59,1.29.1.43.15.94.15,1.54,0,1.26-.45,2.3-1.34,3.12-.89.83-1.97,1.29-3.22,1.39-1.26.1-2.48-.31-3.67-1.24-2.45-2.12-4.98-3.73-7.59-4.86-2.61-1.12-6.07-1.69-10.36-1.69-3.9,0-7.57.79-11.01,2.38-3.44,1.59-6.46,3.77-9.07,6.54-2.61,2.78-4.65,6-6.1,9.67-1.46,3.67-2.18,7.59-2.18,11.75s.73,8.18,2.18,11.85c1.45,3.67,3.49,6.89,6.1,9.67,2.61,2.78,5.64,4.94,9.07,6.5,3.44,1.55,7.11,2.33,11.01,2.33,3.37,0,6.56-.58,9.57-1.74,3.01-1.16,5.9-2.76,8.68-4.81,1.19-.86,2.36-1.24,3.52-1.14,1.16.1,2.13.56,2.93,1.39.79.83,1.19,1.97,1.19,3.42,0,.66-.13,1.31-.4,1.93-.26.63-.66,1.21-1.19,1.74-3.57,2.84-7.39,4.99-11.45,6.45-4.07,1.45-8.35,2.18-12.84,2.18Z"/>
    <path class="cls-2" d="M306.95,42.34l-26.68,41.16v23.1c0,1.46-.49,2.68-1.48,3.67-1,.99-2.22,1.49-3.67,1.49s-2.58-.5-3.57-1.49-1.49-2.21-1.49-3.67v-23.1l-26.48-41.16c-.86-1.39-1.19-2.69-.99-3.92.2-1.22.78-2.21,1.74-2.97.95-.76,2.06-1.14,3.32-1.14,1.12,0,2.01.25,2.68.74.66.5,1.28,1.21,1.88,2.13l23.21,36.83,23.6-37.22c.52-.8,1.15-1.41,1.88-1.84.73-.43,1.62-.64,2.68-.64,1.19,0,2.18.41,2.97,1.24.8.83,1.26,1.85,1.39,3.07.13,1.23-.2,2.47-.99,3.72Z"/>
    <path class="cls-2" d="M368.63,103.82l-15.14-24.38c.36-.16.71-.33,1.06-.51,3.83-1.98,6.83-4.72,8.97-8.23,2.15-3.5,3.23-7.5,3.23-12,0-4.82-1.08-9.05-3.23-12.69-2.14-3.64-5.14-6.5-8.97-8.58-3.84-2.08-8.23-3.12-13.19-3.12h-17.85c-1.45,0-2.68.48-3.67,1.44s-1.49,2.2-1.49,3.72v67.13c0,1.46.5,2.68,1.49,3.67s2.22,1.49,3.67,1.49,2.76-.5,3.72-1.49,1.44-2.21,1.44-3.67v-24.69h12.69c.62,0,1.22-.02,1.82-.05l17.02,27.42c.53.86,1.18,1.49,1.94,1.88.76.4,1.6.6,2.52.6,2.12,0,3.61-.84,4.47-2.53.86-1.69.69-3.49-.5-5.41ZM328.67,72.39v-28.56h12.69c3.04,0,5.72.63,8.03,1.88,2.32,1.26,4.13,3.01,5.46,5.26,1.32,2.25,1.98,4.83,1.98,7.73,0,2.65-.66,5.01-1.98,7.09-1.33,2.09-3.14,3.71-5.46,4.86-2.31,1.16-4.99,1.74-8.03,1.74h-12.69Z"/>
    <path class="cls-2" d="M386.18,111.76c-1.39,0-2.59-.5-3.62-1.49-1.03-.99-1.54-2.21-1.54-3.67V39.47c0-1.45.51-2.68,1.54-3.67,1.02-.99,2.23-1.49,3.62-1.49s2.68.5,3.67,1.49c.99.99,1.49,2.22,1.49,3.67v29.75l32.82-32.82c.79-.79,1.52-1.34,2.18-1.64.66-.3,1.35-.45,2.08-.45,1.65,0,2.84.5,3.57,1.49.73.99.99,2.17.79,3.52-.2,1.36-.83,2.6-1.88,3.72l-25.29,25.39,25.78,35.11c.79,1.12,1.12,2.33.99,3.62-.13,1.29-.59,2.38-1.39,3.27-.79.89-1.85,1.34-3.17,1.34-1.85,0-3.27-.73-4.26-2.18l-25.09-34.01-7.14,7.14v23.9c0,1.46-.5,2.68-1.49,3.67s-2.21,1.49-3.67,1.49Z"/>
    <path class="cls-2" d="M452.23,111.76c-1.46,0-2.66-.5-3.62-1.49-.96-.99-1.44-2.21-1.44-3.67V39.47c0-1.45.5-2.68,1.49-3.67.99-.99,2.18-1.49,3.57-1.49s2.68.5,3.67,1.49c.99.99,1.49,2.22,1.49,3.67v61.98h35.9c1.45,0,2.68.5,3.67,1.49.99.99,1.49,2.22,1.49,3.67s-.5,2.68-1.49,3.67c-.99.99-2.22,1.49-3.67,1.49h-41.05Z"/>
    <path class="cls-2" d="M511.43,111.76c-1.52,0-2.73-.5-3.62-1.49-.89-.99-1.39-2.13-1.49-3.42-.1-1.29.25-2.43,1.04-3.42l48.49-60h-43.43c-1.65,0-2.89-.41-3.72-1.24-.83-.83-1.21-1.87-1.14-3.12-.07-1.39.4-2.53,1.39-3.42.99-.89,2.21-1.34,3.67-1.34h51.17c1.52,0,2.74.46,3.67,1.39.93.93,1.45,2.03,1.59,3.32.13,1.29-.23,2.43-1.09,3.42l-48.69,60.19h44.53c1.52,0,2.74.45,3.67,1.34s1.39,1.93,1.39,3.12c0,1.45-.46,2.6-1.39,3.42-.93.83-2.15,1.24-3.67,1.24h-52.36Z"/>
  </g>
</svg>